<?xml version="1.0" standalone="no"?>
<!DOCTYPE svg PUBLIC "-//W3C//DTD SVG 20010904//EN"
 "http://www.w3.org/TR/2001/REC-SVG-20010904/DTD/svg10.dtd">
<svg version="1.0" xmlns="http://www.w3.org/2000/svg"
 width="1024.000000pt" height="1024.000000pt" viewBox="0 0 1024.000000 1024.000000"
 preserveAspectRatio="xMidYMid meet">
<metadata>
Created by potrace 1.16, written by Peter Selinger 2001-2019
</metadata>
<g transform="translate(0.000000,1024.000000) scale(0.100000,-0.100000)"
fill="#000000" stroke="none">
<path d="M3495 8760 c-303 -5 -335 -7 -385 -27 -86 -32 -160 -72 -214 -114
-26 -21 -53 -36 -60 -32 -6 3 -8 3 -4 -2 10 -11 -10 -35 -25 -31 -7 1 -9 1 -5
-1 4 -3 -9 -27 -29 -54 -27 -35 -40 -45 -46 -36 -6 8 -7 7 -3 -5 3 -9 -6 -37
-20 -61 -13 -25 -36 -78 -51 -118 -25 -70 -27 -85 -31 -312 -3 -175 -7 -235
-15 -231 -8 5 -7 2 1 -7 6 -7 12 -27 12 -44 0 -17 -6 -37 -12 -44 -10 -11 -10
-12 -1 -7 10 5 12 -163 12 -784 0 -610 -3 -790 -12 -790 -9 0 -9 -2 0 -8 17
-11 14 -648 -3 -645 -8 1 -10 -6 -6 -19 5 -21 6 -21 13 -2 10 24 11 -1 3 -34
-4 -15 -12 -21 -21 -18 -8 3 -11 2 -8 -3 6 -11 -162 -134 -182 -134 -7 0 -10
-4 -8 -8 3 -4 -26 -28 -64 -54 -39 -25 -81 -57 -95 -70 -32 -30 -51 -97 -37
-136 5 -16 7 -29 4 -29 -3 0 7 -10 23 -22 42 -31 52 -42 33 -35 -9 3 -16 0
-16 -8 0 -11 5 -11 19 -4 13 7 29 7 49 0 18 -6 29 -6 29 0 0 5 8 9 18 9 22 0
82 41 294 201 86 66 164 119 173 119 9 0 14 4 11 9 -3 5 15 25 41 45 76 56
103 77 181 138 41 32 77 56 82 53 4 -3 14 3 21 13 13 15 12 16 -3 3 -10 -7
-18 -11 -18 -8 0 13 103 86 114 80 6 -3 8 -3 4 2 -12 13 12 35 29 28 10 -4 14
-2 10 4 -9 14 392 365 406 356 6 -3 7 -1 4 5 -7 11 86 95 97 87 3 -3 4 -2 1 2
-8 10 16 33 28 26 5 -3 7 -2 4 4 -4 5 5 20 18 31 28 24 40 28 29 10 -4 -7 -3
-8 5 -4 6 4 9 11 6 15 -2 5 34 45 82 90 64 60 89 78 96 69 6 -10 8 -9 4 3 -4
11 41 60 146 160 82 79 154 143 159 141 4 -1 7 2 6 6 -2 5 88 102 200 217 165
170 201 203 197 179 -39 -237 -54 -421 -33 -407 7 4 12 -10 10 -28 -1 -3 4 -6
11 -6 14 -1 75 -22 97 -33 8 -5 14 -13 12 -20 -1 -6 2 -9 8 -5 6 3 8 10 5 15
-6 10 42 46 50 38 3 -3 -4 -40 -15 -84 -11 -43 -23 -105 -27 -136 -3 -32 -9
-56 -12 -54 -3 2 -6 -87 -6 -199 0 -112 2 -199 5 -194 6 8 31 -129 34 -181 0
-14 3 -27 6 -30 4 -3 21 -50 39 -105 19 -55 50 -134 70 -175 21 -41 36 -82 34
-92 -2 -9 1 -20 8 -24 9 -5 10 -2 5 12 -10 27 -3 18 55 -71 29 -44 52 -85 52
-92 0 -7 4 -10 8 -8 7 5 43 -44 44 -60 0 -5 5 -10 11 -10 11 0 70 -64 74 -80
1 -5 6 -9 10 -8 5 1 22 -13 39 -33 17 -19 31 -32 31 -28 0 4 11 -3 25 -16 13
-12 22 -27 19 -32 -3 -5 -2 -8 3 -7 17 4 43 -14 36 -25 -3 -6 -3 -8 2 -4 4 4
33 -10 64 -31 31 -21 75 -48 98 -61 23 -13 39 -28 36 -33 -3 -6 -1 -7 5 -3 6
4 26 -1 44 -10 18 -10 78 -36 134 -59 72 -29 99 -45 96 -55 -3 -13 -2 -13 6
-1 9 12 23 11 94 -7 116 -29 442 -67 432 -50 -3 4 21 8 53 9 32 0 77 2 101 5
26 4 42 2 42 -5 0 -6 -7 -7 -17 -4 -11 5 -14 3 -8 -6 5 -10 1 -12 -16 -7 -13
3 -18 3 -11 0 6 -3 9 -10 6 -16 -8 -12 29 -6 38 7 4 6 8 -303 8 -687 l0 -696
-1905 -1 -1905 0 0 850 c0 829 -1 850 -20 887 -11 20 -20 33 -20 29 0 -5 -10
-1 -22 7 -12 9 -30 16 -40 16 -10 0 -18 5 -18 12 0 9 -3 9 -12 0 -7 -7 -21
-12 -33 -12 -11 0 -31 -7 -43 -16 -12 -8 -27 -12 -34 -8 -7 4 -8 3 -4 -4 4 -6
0 -22 -9 -35 -14 -21 -15 -114 -16 -806 0 -484 -4 -779 -10 -776 -5 4 -9 1 -9
-4 0 -6 5 -11 10 -11 15 0 12 -281 -3 -299 -9 -12 -9 -13 1 -7 18 11 16 -391
-1 -413 -9 -11 -9 -13 -1 -8 9 5 13 -41 17 -166 3 -133 9 -187 25 -238 19 -62
19 -68 3 -84 -9 -10 -11 -15 -4 -11 6 3 14 0 16 -6 3 -7 6 -4 6 7 1 13 11 2
31 -35 17 -30 28 -60 26 -67 -3 -8 1 -10 11 -6 13 5 15 2 10 -11 -4 -10 -3
-15 3 -11 10 6 56 -52 52 -67 -1 -5 1 -7 6 -4 11 7 85 -68 76 -77 -4 -4 0 -7
8 -7 9 0 42 -16 74 -35 32 -19 61 -35 66 -35 4 0 8 -8 9 -17 0 -10 3 -13 5 -6
4 8 22 5 62 -10 l57 -22 1600 -3 c1777 -3 1660 -7 1801 64 76 38 78 39 68 22
-4 -7 -3 -8 5 -4 6 4 9 11 6 15 -2 5 13 21 35 36 21 15 65 54 97 88 32 34 63
60 68 58 6 -1 7 1 3 4 -11 11 11 47 24 39 7 -4 8 -3 4 4 -4 6 7 39 24 72 17
34 40 96 50 138 19 74 20 121 20 1260 0 830 3 1182 11 1182 5 0 8 4 5 8 -3 5
12 14 32 22 20 7 65 26 100 42 34 16 67 26 74 22 7 -4 8 -3 4 4 -4 7 12 21 41
36 26 14 61 34 77 45 17 11 35 17 40 14 6 -3 8 -3 4 2 -4 4 21 28 55 53 89 64
262 242 334 342 73 103 112 170 168 296 24 53 45 90 48 82 2 -7 3 -4 1 7 -2
11 8 57 21 103 13 46 30 120 36 165 7 45 15 87 19 92 10 16 3 324 -9 405 -6
41 -21 112 -32 158 -17 70 -18 86 -7 100 12 16 11 16 -6 2 -18 -14 -19 -13
-13 3 3 9 2 17 -3 17 -6 0 -10 5 -10 10 0 25 -101 233 -155 320 -33 52 -59 99
-57 103 1 5 -1 6 -6 3 -9 -5 -77 78 -77 95 0 5 -3 8 -6 7 -13 -5 -50 36 -44
49 2 8 0 11 -5 8 -12 -7 -146 116 -142 130 2 5 0 7 -4 3 -10 -11 -65 32 -58
44 4 6 2 8 -4 4 -13 -8 -104 48 -94 58 4 4 3 6 -3 5 -17 -5 -56 12 -49 22 3 5
2 9 -3 8 -21 -4 -34 2 -27 13 4 6 3 8 -3 5 -6 -4 -42 7 -79 24 -38 18 -91 39
-119 49 l-50 17 -2 319 c-3 344 -11 410 -58 512 -28 61 -29 66 -13 56 7 -4 8
-3 4 5 -4 6 -11 9 -16 6 -15 -9 -34 35 -21 48 14 14 14 27 0 27 -5 0 -8 -4 -4
-9 3 -5 1 -12 -3 -15 -12 -7 -73 79 -64 89 4 5 2 6 -3 2 -6 -3 -36 18 -67 46
-31 29 -58 53 -62 55 -3 1 -13 5 -21 8 -8 3 -12 11 -8 17 3 6 1 7 -5 3 -16
-10 -54 12 -46 26 4 7 3 8 -4 4 -6 -4 -37 4 -69 17 -119 49 -75 48 -1418 50
-698 1 -1418 0 -1600 -3z m2877 -284 c16 -5 25 -13 21 -19 -4 -6 -1 -7 6 -3
14 9 71 -12 71 -26 0 -5 4 -7 9 -4 5 3 32 -15 61 -41 39 -35 48 -48 38 -55
-10 -7 -8 -8 5 -4 21 7 57 -44 90 -125 20 -50 22 -74 25 -345 l4 -291 -54 8
c-29 4 -77 8 -105 8 -29 1 -53 6 -53 11 0 6 -5 10 -11 10 -5 0 -7 -4 -4 -10 4
-6 -22 -10 -72 -10 -208 0 -492 -68 -649 -156 -25 -14 -50 -22 -57 -18 -6 4
-9 4 -5 -1 10 -10 -111 -87 -124 -79 -7 4 -8 2 -4 -4 8 -13 -28 -35 -39 -24
-3 4 -5 2 -3 -4 1 -6 -22 -31 -52 -55 -144 -114 -298 -299 -390 -469 -45 -83
-51 -90 -45 -55 3 22 8 58 11 80 5 45 22 161 59 414 14 96 23 187 20 201 -7
31 -49 75 -82 85 -14 4 -94 -13 -215 -45 -335 -90 -652 -172 -670 -173 -9 -1
-15 -3 -13 -5 2 -2 -8 -20 -21 -39 -45 -67 -22 -155 51 -194 41 -22 45 -22
116 -8 41 7 81 14 89 14 8 1 20 3 25 6 6 4 24 9 40 13 17 4 39 9 50 12 18 4
18 4 3 -6 -10 -6 -18 -19 -18 -28 0 -20 -72 -95 -83 -87 -4 3 -5 2 -2 -2 8
-10 -87 -103 -98 -96 -6 3 -7 2 -4 -4 8 -12 -97 -116 -107 -106 -4 5 -6 4 -5
-2 5 -15 -33 -55 -45 -48 -6 3 -7 2 -3 -2 12 -14 -133 -154 -152 -148 -12 3
-13 2 -3 -4 9 -7 -17 -37 -95 -109 -58 -54 -111 -98 -115 -96 -5 1 -7 -1 -4
-6 3 -5 -59 -67 -137 -138 -151 -137 -185 -166 -174 -147 4 6 3 14 -2 17 -5 4
-8 -2 -6 -11 1 -10 -9 -30 -23 -45 -26 -28 -50 -39 -36 -16 4 7 3 8 -5 4 -6
-4 -9 -11 -6 -16 7 -11 -156 -151 -167 -144 -5 3 -7 0 -6 -8 2 -7 -3 -12 -10
-10 -8 1 -11 -2 -7 -7 4 -8 -26 -32 -45 -35 -3 -1 -4 -4 -3 -8 4 -11 -109 -98
-120 -91 -6 3 -7 1 -3 -5 8 -13 -82 -84 -97 -75 -5 3 -7 1 -4 -4 4 -6 0 -16
-8 -23 -13 -11 -15 140 -12 1286 2 1062 4 1305 15 1331 8 18 18 30 23 27 5 -3
6 2 3 10 -13 35 119 198 147 181 8 -5 10 -4 5 4 -10 15 88 60 152 70 64 10
3100 6 3134 -3z m156 -1188 c13 -11 14 -11 7 1 -7 12 4 13 67 8 120 -10 314
-59 303 -77 -3 -5 0 -12 6 -16 8 -4 9 -3 5 4 -4 7 -1 12 9 12 10 0 13 -5 9
-12 -4 -6 -3 -8 3 -5 15 10 103 -23 103 -38 0 -7 7 -16 16 -19 8 -3 12 -2 9 4
-10 17 14 11 33 -7 10 -10 24 -19 31 -21 14 -3 91 -53 91 -59 0 -2 -5 -1 -12
3 -7 4 -8 3 -4 -5 4 -6 12 -9 17 -6 13 9 80 -45 72 -58 -4 -6 -1 -7 6 -2 18
11 80 -52 76 -76 -2 -11 0 -17 6 -14 5 4 6 12 3 18 -4 7 8 -1 26 -18 50 -46
151 -185 143 -198 -3 -7 -2 -9 2 -4 5 4 24 -16 42 -45 33 -54 43 -85 21 -72
-7 4 -8 3 -4 -5 4 -6 11 -9 16 -6 11 7 52 -82 52 -112 0 -13 5 -20 11 -16 7 4
8 -6 4 -28 -5 -21 -4 -29 2 -20 9 14 24 -28 51 -139 18 -76 24 -320 10 -421
-12 -92 -52 -255 -66 -267 -3 -4 -3 4 1 18 4 14 4 22 0 18 -4 -4 -9 -24 -10
-45 -3 -48 -82 -216 -97 -207 -7 4 -8 3 -4 -4 9 -15 -43 -94 -57 -85 -6 3 -7
1 -3 -5 9 -15 -53 -94 -67 -85 -6 3 -7 1 -4 -4 7 -11 -121 -142 -183 -189
-227 -169 -489 -261 -765 -270 -175 -5 -369 23 -490 72 -22 9 -57 23 -77 32
-21 8 -35 19 -32 23 3 5 -1 6 -9 3 -20 -7 -189 94 -181 108 4 6 3 8 -3 5 -13
-8 -88 47 -88 65 0 7 -5 13 -12 13 -20 0 -74 46 -67 57 4 6 3 8 -4 4 -14 -8
-144 145 -137 162 3 7 1 11 -4 8 -33 -21 -221 395 -208 460 2 13 1 21 -4 19
-10 -7 -27 109 -32 211 -4 91 13 264 37 364 30 128 102 304 119 293 6 -3 7 -1
3 5 -16 26 132 230 240 333 83 78 224 181 241 175 8 -3 17 1 20 10 7 20 131
77 150 69 8 -2 12 -1 8 4 -7 12 91 45 106 35 7 -4 9 -3 6 3 -9 14 140 45 243
50 46 2 86 6 89 8 8 9 94 -5 109 -17z m-97 -4560 c0 -10 2 -10 6 0 3 9 38 12
126 11 78 0 115 -4 102 -9 -18 -8 -17 -9 8 -9 l27 -1 0 -270 c0 -284 -6 -343
-46 -421 -28 -57 -73 -111 -85 -103 -5 3 -9 -2 -9 -11 0 -25 -105 -86 -137
-80 -20 4 -23 3 -9 -3 31 -14 -47 -31 -144 -33 -47 0 -750 0 -1563 0 -1445 1
-1479 2 -1530 21 -68 26 -159 89 -153 106 3 7 0 11 -7 8 -17 -6 -73 80 -97
151 -12 35 -20 78 -18 102 2 22 0 39 -4 36 -5 -2 -8 113 -8 256 l0 261 1770 0
c1409 0 1770 -3 1771 -12z"/>
<path d="M5035 8230 c-4 -6 -140 -10 -376 -10 -330 0 -373 -2 -402 -17 -18 -9
-36 -17 -42 -18 -5 0 -10 -7 -11 -15 -2 -32 -17 -80 -25 -80 -5 0 -9 -5 -9
-11 0 -5 5 -7 10 -4 6 3 10 -1 10 -9 0 -9 -4 -16 -8 -16 -5 0 -9 -7 -9 -15 0
-9 5 -14 11 -12 6 2 19 -7 29 -20 45 -57 40 -56 562 -56 264 0 496 3 516 6 70
14 126 97 108 161 -5 16 -6 33 -2 39 3 6 1 7 -5 3 -6 -3 -16 3 -22 14 -21 40
-61 50 -200 50 -85 0 -129 4 -125 10 3 6 4 10 1 10 -3 0 -8 -4 -11 -10z"/>
<path d="M6388 7000 c-14 -10 -29 -16 -32 -12 -4 4 -7 3 -5 -3 1 -5 -3 -23 -9
-38 -7 -16 -12 -55 -12 -88 0 -65 -6 -72 -66 -73 -18 -1 -30 -5 -26 -10 3 -5
-5 -7 -17 -3 -13 3 -20 3 -17 0 8 -9 -86 -63 -96 -57 -5 3 -7 1 -6 -4 2 -5
-19 -31 -45 -57 -28 -29 -45 -41 -42 -30 5 16 5 17 -3 5 -6 -8 -9 -17 -6 -21
2 -4 -5 -22 -15 -41 -27 -44 -51 -141 -51 -201 0 -36 -3 -46 -12 -41 -7 4 -5
-2 5 -13 21 -24 22 -42 2 -70 -10 -14 -12 -24 -5 -28 6 -4 8 -11 5 -16 -10
-15 1 -10 15 7 8 8 9 14 4 13 -20 -3 -24 2 -13 14 10 10 19 1 43 -47 17 -34
27 -64 23 -67 -4 -3 0 -12 9 -20 16 -12 17 -12 9 1 -4 8 12 -4 36 -26 24 -23
61 -52 81 -66 21 -14 36 -27 33 -30 -3 -3 3 -11 12 -19 16 -13 17 -12 4 4 -9
11 -10 17 -2 17 6 0 14 -7 17 -15 4 -8 9 -13 13 -11 11 7 192 -59 184 -68 -4
-4 0 -4 9 -1 32 13 274 -77 262 -97 -4 -6 -3 -8 3 -5 13 8 49 -30 63 -68 13
-34 4 -115 -12 -115 -6 0 -8 -3 -5 -6 10 -11 -13 -45 -25 -38 -6 4 -8 3 -5 -3
9 -14 -29 -47 -43 -38 -6 3 -9 1 -8 -5 5 -21 -74 -43 -157 -44 -86 -1 -191 26
-179 46 4 6 2 8 -4 4 -14 -8 -74 43 -65 56 3 7 1 8 -6 4 -8 -5 -23 18 -45 67
-31 67 -38 76 -77 91 -60 24 -117 15 -155 -25 -25 -26 -29 -38 -29 -87 1 -58
37 -155 72 -194 9 -10 13 -21 10 -25 -4 -3 -2 -12 4 -20 9 -10 8 -13 -1 -13
-8 0 -11 -3 -7 -6 3 -3 11 -3 17 1 8 5 7 11 -2 23 -7 9 14 -7 46 -36 33 -28
64 -52 69 -52 4 0 5 -5 1 -12 -4 -6 -3 -8 4 -4 6 3 25 -2 44 -13 18 -11 58
-27 89 -36 l56 -16 7 -72 c4 -40 8 -80 9 -89 1 -9 3 -15 6 -13 2 3 17 -7 33
-20 16 -14 38 -25 49 -25 10 0 19 -7 19 -15 0 -8 5 -15 11 -15 5 0 8 4 5 9 -3
4 12 13 34 20 65 19 97 75 102 178 1 34 6 43 25 48 13 3 35 3 51 0 22 -4 24
-4 7 4 -15 7 -16 10 -4 10 37 2 142 66 198 121 123 123 162 288 105 445 -14
39 -25 75 -26 82 -1 7 -6 9 -11 6 -6 -4 -8 1 -4 11 4 9 3 15 -2 12 -13 -8 -44
31 -35 45 4 7 3 10 -3 6 -6 -4 -28 7 -49 24 -41 33 -169 99 -192 99 -7 0 -10
5 -6 12 4 6 3 8 -3 5 -21 -13 -296 81 -357 122 -63 42 -81 74 -81 141 1 45 6
66 22 87 12 16 26 27 33 25 6 -1 9 2 5 7 -7 13 52 44 67 35 6 -4 8 -3 5 3 -10
16 79 34 133 28 68 -7 100 -16 100 -26 0 -6 4 -8 9 -5 11 7 91 -50 91 -65 0
-5 -6 -7 -12 -3 -8 4 -10 3 -5 -2 5 -5 14 -9 20 -9 7 0 11 -8 11 -18 -1 -9 2
-15 6 -12 9 6 20 -19 20 -45 0 -26 63 -78 104 -85 44 -9 96 8 127 41 53 57 15
209 -79 315 -23 26 -38 49 -35 53 3 3 -1 6 -11 6 -10 0 -14 5 -10 12 4 6 3 8
-4 4 -6 -3 -33 7 -59 23 -26 16 -60 33 -75 36 -16 4 -26 11 -23 15 3 5 -3 6
-12 4 -32 -8 -41 10 -45 88 -1 42 -6 74 -10 72 -4 -3 -12 5 -18 16 -26 49
-135 68 -182 30z"/>
<path d="M4675 2531 c-65 -30 -127 -91 -153 -150 -16 -37 -33 -203 -19 -194 4
2 7 -2 7 -9 0 -23 41 -92 78 -130 55 -58 113 -81 202 -82 91 -1 154 24 217 86
62 61 87 126 84 218 -2 41 -3 89 -4 105 0 17 -2 24 -5 17 -2 -9 -15 3 -33 29
-15 23 -25 47 -22 53 3 6 3 8 -1 4 -5 -4 -31 9 -58 27 -92 64 -193 73 -293 26z"/>
<path d="M4161 5880 c4 -3 -7 -14 -25 -24 -19 -10 -39 -29 -45 -43 -9 -19 -12
-304 -11 -1077 0 -579 -2 -1054 -4 -1057 -2 -2 -50 -3 -105 -1 l-101 3 0 652
c0 720 2 693 -63 741 -27 20 -44 21 -265 24 -142 1 -238 6 -240 12 -2 6 -8 10
-13 10 -4 0 -6 -7 -3 -15 4 -10 0 -15 -14 -15 -11 0 -34 -13 -51 -29 -18 -17
-34 -30 -37 -30 -3 1 -9 -3 -12 -7 -4 -4 -1 -3 7 1 11 6 13 4 8 -9 -4 -10 -7
-351 -8 -759 0 -423 -4 -733 -9 -722 -7 15 -9 16 -9 4 -1 -9 6 -22 14 -29 8
-7 15 -18 15 -25 0 -20 49 -75 66 -75 9 0 12 -5 8 -12 -4 -6 -3 -8 3 -5 6 4
32 4 58 0 30 -4 42 -9 33 -14 -10 -7 -9 -9 5 -9 9 0 17 5 17 10 0 6 33 10 80
10 54 0 79 -4 78 -11 -2 -6 8 -13 21 -14 22 -2 23 -1 6 12 -17 11 -11 13 44
13 47 0 60 -3 55 -12 -6 -10 -4 -10 7 0 7 6 24 12 39 11 l25 -1 -25 -8 c-23
-7 -23 -8 -3 -9 12 -1 25 4 28 9 4 6 65 10 151 10 94 0 143 -4 139 -10 -4 -6
7 -10 27 -9 31 1 32 1 8 9 l-25 8 28 1 c15 1 27 -3 27 -8 0 -5 9 -11 20 -14
11 -3 20 -1 20 3 0 5 -8 11 -17 13 -10 3 17 5 59 6 42 0 80 -3 83 -9 3 -5 16
-10 28 -9 21 0 21 1 2 9 -13 6 9 8 65 8 59 0 76 -3 55 -8 -27 -7 -26 -8 15 -9
32 0 41 2 30 9 -11 7 2 10 43 10 32 0 56 -4 53 -8 -3 -5 14 -9 36 -11 23 -1
45 -4 50 -7 4 -3 8 -1 8 5 0 5 -12 12 -27 14 -26 4 -26 4 5 6 17 0 32 -3 32
-9 0 -5 10 -10 23 -9 21 0 21 1 2 9 -15 6 -8 9 28 9 27 1 46 -3 43 -8 -7 -11
97 -19 122 -10 13 5 9 8 -13 11 -16 3 31 6 105 6 82 1 130 -2 121 -7 -8 -5
-21 -7 -30 -3 -9 3 -13 2 -9 -3 9 -10 117 -10 126 0 4 5 -1 5 -11 2 -11 -4
-16 -3 -12 3 4 6 55 9 123 9 76 -1 103 -4 77 -8 l-40 -7 48 -5 c26 -2 68 -2
95 1 l47 4 -50 7 c-46 5 -45 6 25 7 49 1 81 -2 89 -10 11 -10 13 -10 7 0 -6 9
17 12 101 12 73 0 103 -3 93 -10 -24 -15 -6 -12 29 6 18 9 41 14 52 11 10 -3
17 -1 14 3 -3 5 4 14 15 20 57 31 78 133 40 195 -31 50 -73 65 -184 65 l-96 0
0 453 c0 419 -1 455 -18 486 -29 55 -68 69 -182 69 -55 0 -105 4 -111 8 -7 4
-10 3 -7 -2 4 -5 -54 -9 -136 -9 -134 0 -145 -1 -178 -24 -19 -13 -36 -29 -38
-35 -1 -6 -4 -222 -7 -479 l-4 -468 -92 2 -92 2 -5 1056 -5 1056 -23 32 c-14
21 -37 36 -60 42 -38 10 -527 20 -511 11z m321 -272 c3 -7 5 -286 5 -620 0
-449 -2 -606 -11 -601 -8 5 -8 3 1 -8 8 -10 11 -110 10 -357 l-2 -343 -70 3
-70 3 -3 968 -2 967 69 0 c46 0 70 -4 73 -12z m-882 -1353 l0 -575 -75 0 -75
0 0 559 0 560 21 6 c17 6 19 9 8 16 -9 5 11 9 54 9 l67 0 0 -575z m1760 -205
l0 -370 -70 0 -70 0 -1 48 c-5 176 -7 660 -3 675 5 14 17 17 75 17 l69 0 0
-370z"/>
</g>
</svg>
